<svg version="1" xmlns="http://www.w3.org/2000/svg" width="466.667" height="466.667" viewBox="0 0 350.000000 350.000000"><path d="M60 175v175h47.5V229.9c0-66 .3-120.3.6-120.5.3-.2 1.2 3.6 1.9 8.4.8 4.8 1.5 9.1 1.6 9.7.1.5.5 2.8.8 5 .4 2.2 2 11.9 3.6 21.5s3.1 18.8 3.3 20.5c.3 1.6 1.2 7.3 2.2 12.5 1.6 9.3 2.1 12.2 2.9 17.7.3 1.6 1.4 8.4 2.6 15.3 1.1 6.9 2.3 13.8 2.6 15.5.2 1.6.6 4.1.9 5.5.2 1.4.7 4.1.9 6 .3 1.9 1 6.2 1.6 9.5.6 3.3 1.3 7.8 1.6 10 .3 2.2.9 6 1.4 8.5.5 2.5 1.2 6.2 1.5 8.2.3 2.1.7 5.5 1 7.5.3 2.1.8 4.7 1 5.9.3 1.2.7 3.9 1 6 .3 2.1.8 4.4 1 5.1.2.6.7 3.8 1.1 7 .3 3.2.8 6.1 1 6.4.1.3.6 2.8 1 5.5.3 2.7.8 5.1.9 5.4.2.3.7 3.2 1 6.3.4 3.2 1 7 1.4 8.5l.7 2.7 26.1.3 26 .2.6-4.2c.3-2.4 1.5-10.6 2.7-18.3 1.2-7.7 2.3-15.8 2.6-18 .3-2.2.9-6.3 1.4-9 .5-2.8 1.2-6.7 1.5-8.7.3-2.1.7-5.3 1-7 .3-1.8 1.8-12.3 3.5-23.3 1.6-11 3.2-21.1 3.4-22.5.2-1.4.7-4.6 1-7.1.4-2.5.9-5.7 1.1-7 .5-2.7 3.5-23.1 4-26.9.3-2.4 1.8-11.9 2-13 .1-.3.5-3 .9-6s1.4-9.3 2.2-14c.7-4.7 1.6-10.1 1.8-12 .7-4.8 4.6-31 5.1-33.5.2-1.1.7-4.6 1-7.8.4-3.1 1-5.7 1.4-5.7.3 0 .6 54.9.6 122v122h52l.1-175V0h-76.4l-.6 2.7c-.3 1.6-.8 4.4-1.1 6.3-.2 1.9-1.6 11.1-3 20.5-1.4 9.3-2.8 18.6-3.1 20.5-.2 1.9-1.2 8-2 13.5-.9 5.5-1.7 11.1-1.9 12.5-.2 1.4-.5 3.8-.8 5.5-.7 3.7-1.8 10.8-2.2 13.8-1.1 7.9-1.7 11.9-2.5 17.2-.5 3.3-1.2 7.8-1.5 10-.3 2.2-1 6.5-1.5 9.5s-1.1 7.1-1.4 9c-.7 5.3-4.6 31.2-5.1 33.7-.2 1.2-.9 5.7-1.5 10s-1.3 8.9-1.5 10.3c-.3 1.4-.9 5.9-1.5 10.1-.6 4.1-1.3 8.6-1.5 9.9-.2 1.3-.7 4.6-1 7.4-.3 2.8-.8 5.8-1 6.6-.2.8-.7 3.5-1.1 6-.3 2.5-.8 5.2-.9 6-.2.8-.4 2.6-.4 3.9-.2 5.3-1.5-.3-3.6-15.4-.3-2.2-.8-4.9-1-6.1-.3-1.2-.7-3.9-1-6-.3-2.1-1-6.2-1.5-8.9-.5-2.8-1.2-6.8-1.5-9-.3-2.2-.8-5.1-1-6.5-2.5-14.4-6.5-39.5-7-43.5-.4-2.8-.8-5.7-1-6.5-.3-.8-.7-3.3-1-5.5-.5-3.3-4.2-26.1-6-36.5-.7-3.9-5.6-34.2-6.1-37.5-.3-1.7-1-5.7-1.5-9s-1.2-7.6-1.5-9.5c-.7-4.8-6.3-38.9-7-42.3l-.6-2.7H60v175z"/></svg>