<svg id="Слой_1" xmlns="http://www.w3.org/2000/svg" viewBox="0 0 446 143"><style>.st0{enable-background:new}.st1{fill:#fff}</style><g class="st0"><path class="st1" d="M9 59.9V3.7l34.4 34.4L77.8 3.7v56.2H62.2V41.2L43.4 59.9 24.7 41.2V60H9zm71.9-37.5V6.8h68.8v15.6H80.9zm0 18.8V25.6h68.8v15.6H80.9zm0 18.7V44.3h68.8v15.6H80.9zm71.9 0V6.8h68.8v15.6h-53.1v21.9h21.9l-18.8-18.8h21.9l34.4 34.4h-75.1z"/><path class="st1" d="M224.7 59.9V6.8h68.8v15.6h-53.1v21.9h53.1v15.6h-68.8zm71.8 0V6.8h68.8v53.1h-68.8zm53.2-15.6V22.4h-37.5v21.9h37.5z"/></g><g class="st0"><path class="st1" d="M422.2 59.9V41.2L403.5 60l-18.7-18.8V60h-15.6V3.7l34.3 34.4 34.3-34.4v56.2h-15.6z"/></g><g class="st0"><path class="st1" d="M106.1 136.9V99H80.9V83.3h66.2V99h-25.2v37.8h-15.8zm44.2 0V83.3h69.4v53.6h-69.4zm53.6-15.8V99h-37.8v22.1h37.8zm18.9 15.8V83.3h15.8v37.8h37.8V83.3h15.8v53.6h-69.4zm72.5 0V83.3h69.4V118h-12.6l18.9 18.9h-22.1l-34.7-34.7h34.7V99h-37.8v37.8h-15.8z"/></g><g class="st0"><path class="st1" d="M25 115.1l6.4-6.4-6.4-6.4h5.2l4.5 4.5 4.5-4.5h5.2l-6.4 6.4 6.4 6.4h-5.2l-4.5-4.5-4.5 4.5H25z"/><path class="st1" d="M42.2 115.1l6.4-6.4-6.4-6.4h5.2l4.5 4.5 4.5-4.5h5.2l-6.4 6.4 6.4 6.4h-5.2l-4.5-4.5-4.5 4.5h-5.2z"/></g><g class="st0"><path class="st1" d="M391.3 102.4h3.8v7.5l7.5-7.5h5.2l-16.5 16.5v-16.5z"/></g><g class="st0"><path class="st1" d="M410.9 115.1v-12.8h3.8v12.8h-3.8z"/></g><g class="st0"><path class="st1" d="M417.6 115.1v-12.8h3.8v12.8h-3.8z"/></g></svg>