<?xml version="1.0" encoding="utf-8"?>
<!-- Generator: Adobe Illustrator 21.0.0, SVG Export Plug-In . SVG Version: 6.00 Build 0)  -->
<svg version="1.1" id="Слой_1" xmlns="http://www.w3.org/2000/svg" xmlns:xlink="http://www.w3.org/1999/xlink" x="0px" y="0px"
	 viewBox="0 0 446 143" style="enable-background:new 0 0 446 143;" xml:space="preserve">
<style type="text/css">
	.st0{enable-background:new    ;}
	.st1{fill:#FFFFFF;}
</style>
<g class="st0">
	<path class="st1" d="M9,59.9V3.7l34.4,34.4L77.8,3.7v56.2H62.2V41.2L43.4,59.9L24.7,41.2v18.8H9z"/>
	<path class="st1" d="M80.9,22.4V6.8h68.8v15.6H80.9z M80.9,41.2V25.6h68.8v15.6H80.9z M80.9,59.9V44.3h68.8v15.6H80.9z"/>
	<path class="st1" d="M152.8,59.9V6.8h68.8v15.6h-53.1v21.9h21.9l-18.8-18.8h21.9l34.4,34.4H152.8z"/>
	<path class="st1" d="M224.7,59.9V6.8h68.8v15.6h-53.1v21.9h53.1v15.6H224.7z"/>
	<path class="st1" d="M296.5,59.9V6.8h68.8v53.1H296.5z M349.7,44.3V22.4h-37.5v21.9H349.7z"/>
</g>
<g class="st0">
	<path class="st1" d="M422.2,59.9V41.2l-18.7,18.8l-18.7-18.8v18.8h-15.6V3.7l34.3,34.4l34.3-34.4v56.2H422.2z"/>
</g>
<g class="st0">
	<path class="st1" d="M106.1,136.9V99H80.9V83.3h66.2V99h-25.2v37.8H106.1z"/>
	<path class="st1" d="M150.3,136.9V83.3h69.4v53.6H150.3z M203.9,121.1V99h-37.8v22.1H203.9z"/>
	<path class="st1" d="M222.8,136.9V83.3h15.8v37.8h37.8V83.3h15.8v53.6H222.8z"/>
	<path class="st1" d="M295.3,136.9V83.3h69.4V118h-12.6l18.9,18.9h-22.1l-34.7-34.7h34.7V99h-37.8v37.8H295.3z"/>
</g>
<g class="st0">
	<path class="st1" d="M25,115.1l6.4-6.4l-6.4-6.4h5.2l4.5,4.5l4.5-4.5h5.2l-6.4,6.4l6.4,6.4h-5.2l-4.5-4.5l-4.5,4.5H25z"/>
	<path class="st1" d="M42.2,115.1l6.4-6.4l-6.4-6.4h5.2l4.5,4.5l4.5-4.5h5.2l-6.4,6.4l6.4,6.4h-5.2l-4.5-4.5l-4.5,4.5H42.2z"/>
</g>
<g class="st0">
	<path class="st1" d="M391.3,102.4h3.8v7.5l7.5-7.5h5.2l-16.5,16.5V102.4z"/>
</g>
<g class="st0">
	<path class="st1" d="M410.9,115.1v-12.8h3.8v12.8H410.9z"/>
</g>
<g class="st0">
	<path class="st1" d="M417.6,115.1v-12.8h3.8v12.8H417.6z"/>
</g>
</svg>
