<?xml version="1.0" standalone="no"?>
<!DOCTYPE svg PUBLIC "-//W3C//DTD SVG 20010904//EN"
 "http://www.w3.org/TR/2001/REC-SVG-20010904/DTD/svg10.dtd">
<svg version="1.0" xmlns="http://www.w3.org/2000/svg"
 width="350.000000pt" height="350.000000pt" viewBox="0 0 350.000000 350.000000"
 preserveAspectRatio="xMidYMid meet">
<metadata>
Created by potrace 1.11, written by Peter Selinger 2001-2013
</metadata>
<g transform="translate(0.000000,350.000000) scale(0.100000,-0.100000)"
fill="#000000" stroke="none">
<path d="M600 1750 l0 -1750 238 0 237 0 0 1201 c0 660 3 1203 6 1205 3 2 12
-36 19 -84 8 -48 15 -91 16 -97 1 -5 5 -28 8 -50 4 -22 20 -119 36 -215 16
-96 31 -188 33 -205 3 -16 12 -73 22 -125 16 -93 21 -122 29 -177 3 -16 14
-84 26 -153 11 -69 23 -138 26 -155 2 -16 6 -41 9 -55 2 -14 7 -41 9 -60 3
-19 10 -62 16 -95 6 -33 13 -78 16 -100 3 -22 9 -60 14 -85 5 -25 12 -62 15
-82 3 -21 7 -55 10 -75 3 -21 8 -47 10 -59 3 -12 7 -39 10 -60 3 -21 8 -44 10
-51 2 -6 7 -38 11 -70 3 -32 8 -61 10 -64 1 -3 6 -28 10 -55 3 -27 8 -51 9
-54 2 -3 7 -32 10 -63 4 -32 10 -70 14 -85 l7 -27 261 -3 260 -2 6 42 c3 24
15 106 27 183 12 77 23 158 26 180 3 22 9 63 14 90 5 28 12 67 15 87 3 21 7
53 10 70 3 18 18 123 35 233 16 110 32 211 34 225 2 14 7 46 10 71 4 25 9 57
11 70 5 27 35 231 40 269 3 24 18 119 20 130 1 3 5 30 9 60 4 30 14 93 22 140
7 47 16 101 18 120 7 48 46 310 51 335 2 11 7 46 10 78 4 31 10 57 14 57 3 0
6 -549 6 -1220 l0 -1220 260 0 260 0 1 1750 0 1750 -382 0 -382 0 -6 -27 c-3
-16 -8 -44 -11 -63 -2 -19 -16 -111 -30 -205 -14 -93 -28 -186 -31 -205 -2
-19 -12 -80 -20 -135 -9 -55 -17 -111 -19 -125 -2 -14 -5 -38 -8 -55 -7 -37
-18 -108 -22 -138 -11 -79 -17 -119 -25 -172 -5 -33 -12 -78 -15 -100 -3 -22
-10 -65 -15 -95 -5 -30 -11 -71 -14 -90 -7 -53 -46 -312 -51 -337 -2 -12 -9
-57 -15 -100 -6 -43 -13 -89 -15 -103 -3 -14 -9 -59 -15 -101 -6 -41 -13 -86
-15 -99 -2 -13 -7 -46 -10 -74 -3 -28 -8 -58 -10 -66 -2 -8 -7 -35 -11 -60 -3
-25 -8 -52 -9 -60 -2 -8 -4 -26 -4 -39 -2 -53 -15 3 -36 154 -3 22 -8 49 -10
61 -3 12 -7 39 -10 60 -3 21 -10 62 -15 89 -5 28 -12 68 -15 90 -3 22 -8 51
-10 65 -25 144 -65 395 -70 435 -4 28 -8 57 -10 65 -3 8 -7 33 -10 55 -5 33
-42 261 -60 365 -7 39 -56 342 -61 375 -3 17 -10 57 -15 90 -5 33 -12 76 -15
95 -7 48 -63 389 -70 423 l-6 27 -379 0 -379 0 0 -1750z"/>
</g>
</svg>
